<svg width="720" height="720" viewBox="0 0 720 720" fill="none" xmlns="http://www.w3.org/2000/svg">
<rect width="720" height="720" rx="130" fill="#001E2B"/>
<path fill-rule="evenodd" clip-rule="evenodd" d="M597.683 326.807C597.189 326.906 596.692 327.997 596.692 328.592C596.593 332.562 596.494 343.083 596.494 350.228C596.494 350.427 596.791 350.824 597.089 350.824C598.577 350.923 602.15 351.022 605.227 351.022C609.494 351.022 611.975 350.427 613.366 349.832C616.937 348.045 618.625 344.174 618.625 339.906C618.625 330.28 611.876 326.608 601.852 326.608C601.157 326.509 599.174 326.509 597.683 326.807ZM623.29 371.169C623.29 361.344 616.045 355.885 602.945 355.885C602.349 355.885 598.18 355.786 597.188 355.984C596.89 356.084 596.494 356.283 596.494 356.581C596.494 363.626 596.394 374.842 596.692 379.208C596.89 381.093 598.28 383.773 599.968 384.567C601.753 385.56 605.822 385.758 608.601 385.758C616.441 385.758 623.29 381.391 623.29 371.169ZM577.439 321.349C578.431 321.349 581.407 321.646 589.05 321.646C596.295 321.646 602.051 321.448 609.097 321.448C617.731 321.448 629.641 324.523 629.641 337.426C629.641 343.777 625.174 348.839 619.319 351.321C619.023 351.42 619.023 351.617 619.319 351.716C627.655 353.802 635.001 358.962 635.001 368.687C635.001 378.216 629.046 384.269 620.411 388.041C615.151 390.323 608.601 391.117 601.952 391.117C596.89 391.117 583.294 390.522 575.752 390.721C574.958 390.422 576.446 386.849 577.14 386.255C578.927 386.155 580.316 386.056 582.202 385.46C584.882 384.766 585.179 383.971 585.576 379.903C585.775 376.429 585.775 364.122 585.775 355.389C585.775 343.38 585.875 335.243 585.775 331.273C585.676 328.197 584.584 327.204 582.401 326.608C580.713 326.311 577.935 325.913 575.652 325.616C575.155 325.119 576.842 321.744 577.439 321.349ZM520.173 383.079C522.556 384.963 527.221 385.757 531.389 385.757C536.748 385.757 542.107 384.766 547.268 380.1C552.528 375.338 556.2 367.993 556.2 356.283C556.2 345.067 551.932 335.936 543.199 330.578C538.237 327.5 531.885 326.212 524.541 326.212C522.357 326.212 520.273 326.311 518.984 326.906C518.685 327.105 517.991 327.997 517.991 328.493C517.792 330.478 517.792 345.762 517.792 354.694C517.792 363.924 517.792 376.826 517.991 378.314C517.991 379.804 518.685 382.086 520.174 383.079H520.173ZM497.645 321.348C499.531 321.348 506.775 321.646 510.249 321.646C516.503 321.646 520.968 321.349 532.778 321.349C542.702 321.349 551.039 324.028 556.994 329.089C564.238 335.341 568.011 343.976 568.011 354.495C568.011 369.482 561.162 378.117 554.314 383.079C547.467 388.14 538.534 391.117 525.831 391.117C519.083 391.117 507.471 390.919 497.844 390.819H497.745C497.249 389.926 498.538 386.452 499.332 386.353C501.913 386.056 502.608 385.956 503.898 385.461C505.982 384.666 506.379 383.575 506.677 379.903C506.974 373.054 506.875 364.818 506.875 355.488C506.875 348.839 506.974 335.837 506.775 331.669C506.478 328.196 504.99 327.302 502.012 326.707C500.524 326.41 498.538 326.012 495.76 325.715C495.363 325.019 497.149 321.943 497.645 321.349V321.348Z" fill="white"/>
<path fill-rule="evenodd" clip-rule="evenodd" d="M377.559 386.948C375.078 386.65 373.292 386.254 371.109 385.262C370.811 385.063 370.314 384.071 370.314 383.673C370.116 380.2 370.116 370.275 370.116 363.627C370.116 358.267 369.223 353.603 366.94 350.328C364.26 346.555 360.391 344.373 355.428 344.373C351.061 344.373 345.205 347.35 340.342 351.518C340.243 351.617 339.45 352.313 339.548 351.22C339.548 350.129 339.747 347.946 339.846 346.456C339.946 345.067 339.152 344.373 339.152 344.373C335.976 345.96 327.044 348.045 323.768 348.341C321.387 348.839 320.791 351.122 323.274 351.915H323.373C326.05 352.709 327.838 353.603 329.226 354.496C330.219 355.29 330.12 356.382 330.12 357.275C330.219 364.717 330.219 376.131 329.922 382.384C329.823 384.865 329.128 385.758 327.341 386.154L327.54 386.056C326.15 386.353 325.059 386.65 323.371 386.849C322.776 387.445 322.776 390.621 323.371 391.316C324.463 391.316 330.219 391.018 334.984 391.018C341.534 391.018 344.909 391.316 346.595 391.316C347.29 390.522 347.489 387.544 347.092 386.849C345.205 386.75 343.816 386.552 342.526 386.154C340.74 385.757 340.243 384.865 340.143 382.781C339.946 377.52 339.946 366.405 339.946 358.863C339.946 356.778 340.541 355.786 341.136 355.19C343.419 353.206 347.092 351.816 350.366 351.816C353.542 351.816 355.625 352.809 357.214 354.099C359.397 355.885 360.092 358.466 360.39 360.351C360.885 364.618 360.688 373.054 360.688 380.399C360.688 384.368 360.39 385.361 358.902 385.857C358.207 386.154 356.42 386.552 354.336 386.749C353.641 387.445 353.84 390.522 354.336 391.217C357.214 391.217 360.589 390.919 365.551 390.919C371.703 390.919 375.674 391.217 377.262 391.217C377.757 390.621 377.956 387.743 377.559 386.948ZM405.05 349.038C399.791 349.038 396.515 353.107 396.515 359.457C396.515 365.909 399.393 373.352 407.531 373.352C408.921 373.352 411.502 372.756 412.691 371.367C414.578 369.582 415.868 366.008 415.868 362.236C415.868 353.999 411.799 349.037 405.05 349.037V349.038ZM404.355 392.903C402.371 392.903 400.981 393.499 400.088 393.996C395.919 396.673 394.034 399.255 394.034 402.333C394.034 405.209 395.126 407.491 397.508 409.477C400.386 411.958 404.355 413.149 409.416 413.149C419.54 413.149 424.006 407.69 424.006 402.333C424.006 398.56 422.12 396.079 418.25 394.69C415.471 393.499 410.41 392.903 404.355 392.903ZM405.05 418.707C398.996 418.707 394.629 417.417 390.858 414.539C387.186 411.76 385.598 407.591 385.598 404.714C385.598 403.92 385.797 401.736 387.584 399.751C388.674 398.56 391.057 396.278 396.714 392.407C396.912 392.308 397.011 392.209 397.011 392.009C397.011 391.811 396.812 391.612 396.614 391.515C391.95 389.728 390.561 386.849 390.163 385.262V385.063C390.065 384.467 389.866 383.872 390.759 383.277C391.454 382.781 392.447 382.185 393.537 381.491C395.225 380.498 397.011 379.406 398.103 378.512C398.302 378.314 398.302 378.116 398.302 377.918C398.302 377.719 398.103 377.52 397.904 377.422C390.958 375.139 387.485 369.977 387.485 362.236C387.485 357.175 389.767 352.61 393.835 349.732C396.614 347.549 403.562 344.869 408.127 344.869H408.425C413.089 344.968 415.669 345.96 419.341 347.251C421.326 347.946 423.212 348.243 425.793 348.243C429.663 348.243 431.35 347.052 432.739 345.664C432.839 345.861 433.038 346.358 433.137 347.648C433.236 348.938 432.839 350.824 431.846 352.213C431.052 353.305 429.266 354.099 427.48 354.099H426.983C425.197 353.901 424.402 353.702 424.402 353.702L424.006 353.9C423.907 354.099 424.006 354.297 424.105 354.595L424.205 354.794C424.403 355.687 424.8 358.366 424.8 359.062C424.8 367.2 421.525 370.771 418.051 373.451C414.676 375.932 410.807 377.52 406.44 377.918C406.341 377.918 405.945 377.918 405.05 378.016C404.554 378.016 403.86 378.116 403.76 378.116H403.661C402.867 378.314 400.883 379.307 400.883 380.993C400.883 382.482 401.775 384.269 406.043 384.567C406.935 384.666 407.828 384.666 408.822 384.766C414.479 385.162 421.525 385.659 424.8 386.75C429.365 388.437 432.243 392.506 432.243 397.369C432.243 404.715 426.984 411.562 418.25 415.828C413.983 417.715 409.714 418.707 405.05 418.707ZM461.619 349.534C459.536 349.534 457.649 350.029 456.26 351.022C452.391 353.404 450.405 358.168 450.405 365.114C450.405 378.116 456.955 387.247 466.284 387.247C469.063 387.247 471.246 386.452 473.132 384.865C476.01 382.482 477.499 377.719 477.499 371.069C477.499 358.168 471.047 349.533 461.62 349.533L461.619 349.534ZM463.406 392.01C446.535 392.01 440.481 379.605 440.481 367.993C440.481 359.855 443.756 353.603 450.305 349.136C454.97 346.258 460.528 344.671 465.491 344.671C478.392 344.671 487.423 353.901 487.423 367.2C487.423 376.23 483.851 383.375 477.002 387.743C473.728 389.926 468.071 392.01 463.405 392.01H463.406ZM286.552 349.533C284.468 349.533 282.583 350.029 281.192 351.022C277.323 353.404 275.337 358.168 275.337 365.114C275.337 378.116 281.887 387.247 291.216 387.247C293.995 387.247 296.179 386.452 298.065 384.865C300.942 382.482 302.431 377.719 302.431 371.069C302.431 358.168 296.08 349.533 286.552 349.533ZM288.339 392.01C271.467 392.01 265.413 379.605 265.413 367.993C265.413 359.855 268.688 353.603 275.237 349.136C279.903 346.258 285.461 344.671 290.423 344.671C303.325 344.671 312.356 353.901 312.356 367.2C312.356 376.23 308.783 383.375 301.934 387.743C298.759 389.926 293.102 392.01 288.339 392.01ZM174.902 391.018C174.703 390.721 174.504 389.827 174.604 388.736C174.604 387.941 174.803 387.445 174.902 387.247C176.986 386.948 178.078 386.65 179.268 386.353C181.253 385.857 182.047 384.766 182.146 382.285C182.445 376.33 182.445 365.015 182.345 357.175V356.976C182.345 356.084 182.345 354.991 181.253 354.197C179.665 353.206 177.78 352.313 175.299 351.616C174.406 351.32 173.81 350.824 173.909 350.229C173.909 349.633 174.505 348.938 175.796 348.739C179.07 348.441 187.604 346.358 190.979 344.869C191.178 345.067 191.476 345.664 191.476 346.457L191.377 347.548C191.277 348.64 191.178 349.931 191.178 351.22C191.178 351.617 191.576 351.915 191.971 351.915C192.17 351.915 192.369 351.816 192.567 351.716C198.919 346.754 204.675 344.968 207.652 344.968C212.516 344.968 216.287 347.251 219.165 352.014C219.363 352.313 219.562 352.412 219.86 352.412C220.058 352.412 220.355 352.313 220.455 352.114C226.311 347.648 232.167 344.968 236.036 344.968C245.266 344.968 250.725 351.816 250.725 363.428C250.725 366.703 250.725 370.97 250.626 374.842C250.626 378.314 250.527 381.49 250.527 383.773C250.527 384.268 251.22 385.857 252.312 386.154C253.701 386.849 255.588 387.147 258.069 387.544H258.168C258.367 388.239 257.97 390.819 257.573 391.316C256.977 391.316 256.084 391.316 255.092 391.217C252.58 391.086 250.064 391.019 247.549 391.018C241.396 391.018 238.22 391.117 235.142 391.316C234.945 390.522 234.845 388.14 235.142 387.544C236.93 387.247 237.822 386.948 238.915 386.651C240.9 386.056 241.396 385.162 241.496 382.582C241.496 380.697 241.892 364.618 241.296 360.748C240.701 356.778 237.723 352.114 231.173 352.114C228.692 352.114 224.822 353.107 221.051 355.984C220.853 356.183 220.653 356.678 220.653 356.976V357.076C221.051 359.159 221.051 361.543 221.051 365.214V371.665C221.051 376.131 220.951 380.3 221.051 383.474C221.051 385.659 222.341 386.154 223.433 386.552C224.029 386.65 224.424 386.75 224.921 386.849C225.814 387.048 226.708 387.247 228.097 387.544C228.296 387.942 228.296 389.231 227.998 390.323C227.898 390.919 227.699 391.216 227.6 391.316C224.226 391.217 220.753 391.117 215.692 391.117C214.203 391.117 211.622 391.217 209.439 391.217C207.652 391.217 205.965 391.316 204.974 391.316C204.874 391.117 204.675 390.423 204.675 389.33C204.675 388.438 204.874 387.743 205.073 387.544C205.568 387.445 205.965 387.346 206.462 387.346C207.652 387.147 208.645 386.948 209.637 386.75C211.325 386.254 211.92 385.361 212.019 383.178C212.317 378.215 212.615 364.024 211.92 360.45C210.729 354.694 207.455 351.816 202.194 351.816C199.118 351.816 195.246 353.305 192.071 355.688C191.575 356.084 191.178 357.075 191.178 357.969V363.825C191.178 370.97 191.178 379.903 191.277 383.773C191.377 384.963 191.772 386.353 194.056 386.849C194.552 386.948 195.346 387.147 196.339 387.247L198.124 387.544C198.324 388.14 198.224 390.522 197.827 391.316C196.835 391.316 195.644 391.217 194.254 391.217C192.17 391.117 189.49 391.018 186.513 391.018C183.04 391.018 180.559 391.117 178.573 391.217C177.184 391.018 176.092 391.018 174.902 391.018Z" fill="white"/>
<path fill-rule="evenodd" clip-rule="evenodd" d="M122.698 414.836L118.629 413.445C118.629 413.445 119.126 392.704 111.682 391.215C106.721 385.459 112.478 147.073 130.341 390.421C130.341 390.421 124.187 393.497 123.096 398.758C121.904 403.919 122.698 414.836 122.698 414.836Z" fill="black"/>
<path fill-rule="evenodd" clip-rule="evenodd" d="M122.698 414.836L118.629 413.445C118.629 413.445 119.126 392.704 111.682 391.215C106.721 385.459 112.478 147.073 130.341 390.421C130.341 390.421 124.187 393.497 123.096 398.758C121.904 403.919 122.698 414.836 122.698 414.836Z" fill="#A6A385"/>
<path fill-rule="evenodd" clip-rule="evenodd" d="M124.883 394.79C124.883 394.79 160.512 371.368 152.174 322.638C144.136 287.209 125.18 275.597 123.096 271.131C120.814 267.955 118.63 262.398 118.63 262.398L120.119 360.947C120.119 361.047 117.043 391.117 124.884 394.791" fill="black"/>
<path fill-rule="evenodd" clip-rule="evenodd" d="M124.883 394.79C124.883 394.79 160.512 371.368 152.174 322.638C144.136 287.209 125.18 275.597 123.096 271.131C120.814 267.955 118.63 262.398 118.63 262.398L120.119 360.947C120.119 361.047 117.043 391.117 124.884 394.791" fill="#499D4A"/>
<path fill-rule="evenodd" clip-rule="evenodd" d="M116.546 396.079C116.546 396.079 83.0997 373.253 85.085 333.06C86.9703 292.866 110.59 273.116 115.156 269.543C118.134 266.367 118.233 265.176 118.432 262C120.516 266.466 120.119 328.792 120.416 336.135C121.308 364.42 118.828 390.721 116.546 396.079Z" fill="black"/>
<path fill-rule="evenodd" clip-rule="evenodd" d="M116.546 396.079C116.546 396.079 83.0997 373.253 85.085 333.06C86.9703 292.866 110.59 273.116 115.156 269.543C118.134 266.367 118.233 265.176 118.432 262C120.516 266.466 120.119 328.792 120.416 336.135C121.308 364.42 118.828 390.721 116.546 396.079Z" fill="#58AA50"/>
</svg>
